<?xml version="1.0" standalone="no"?>
<!DOCTYPE svg PUBLIC "-//W3C//DTD SVG 20010904//EN"
 "http://www.w3.org/TR/2001/REC-SVG-20010904/DTD/svg10.dtd">
<svg version="1.0" xmlns="http://www.w3.org/2000/svg"
 width="422.000000pt" height="298.000000pt" viewBox="0 0 422.000000 298.000000"
 preserveAspectRatio="xMidYMid meet">
<metadata>
Created by potrace 1.12, written by Peter Selinger 2001-2015
</metadata>
<g transform="translate(0.000000,298.000000) scale(0.100000,-0.100000)"
fill="#ece8df" stroke="none">
<path d="M3200 2960 c-16 -31 4 -62 38 -58 33 4 41 32 16 59 -22 24 -41 24
-54 -1z"/>
<path d="M2471 2956 c-9 -10 -9 -16 -1 -21 17 -10 37 12 24 25 -8 8 -15 6 -23
-4z"/>
<path d="M2516 2928 c-24 -34 -21 -103 6 -128 26 -24 47 -25 93 -6 47 20 60
49 46 97 -14 45 -35 59 -90 59 -30 0 -44 -6 -55 -22z"/>
<path d="M2706 2921 c-9 -14 -10 -66 -2 -79 9 -15 41 -16 67 -2 12 7 19 21 19
40 0 19 -7 33 -19 40 -24 12 -58 13 -65 1z"/>
<path d="M2434 2905 c-8 -19 12 -36 33 -28 19 7 12 37 -10 41 -9 2 -20 -4 -23
-13z"/>
<path d="M3149 2894 c-10 -12 -9 -18 4 -31 18 -18 47 -11 47 11 0 25 -35 39
-51 20z"/>
<path d="M3247 2879 c-41 -24 -63 -123 -32 -149 8 -7 34 -15 58 -17 39 -5 46
-2 70 27 32 37 33 55 9 93 -35 52 -69 67 -105 46z"/>
<path d="M2427 2853 c-13 -12 -7 -41 10 -47 21 -8 48 17 40 38 -6 16 -38 22
-50 9z"/>
<path d="M3124 2828 c-10 -17 26 -40 42 -27 7 6 10 17 7 25 -6 17 -39 19 -49
2z"/>
<path d="M2456 2784 c-27 -26 -17 -59 18 -59 36 0 56 27 40 53 -15 24 -38 26
-58 6z"/>
<path d="M3142 2758 c5 -15 28 -18 29 -3 0 6 -7 12 -17 13 -10 3 -15 -1 -12
-10z"/>
<path d="M3382 2740 c-13 -36 -7 -57 19 -65 30 -10 58 4 65 32 9 35 -7 57 -43
61 -26 3 -32 -1 -41 -28z"/>
<path d="M3804 2716 c-8 -21 3 -36 27 -36 15 0 20 6 17 22 -4 27 -35 37 -44
14z"/>
<path d="M3875 2710 c-7 -12 2 -30 16 -30 12 0 12 27 0 35 -5 3 -12 1 -16 -5z"/>
<path d="M3744 2695 c-9 -22 22 -53 37 -38 15 15 7 47 -14 51 -9 2 -20 -4 -23
-13z"/>
<path d="M3683 2653 c-7 -2 -13 -16 -13 -29 0 -31 42 -53 65 -34 38 32 -4 83
-52 63z"/>
<path d="M3833 2653 c-30 -6 -73 -51 -73 -78 0 -29 62 -85 95 -85 13 0 38 12
55 27 29 24 32 31 27 66 -9 65 -36 83 -104 70z"/>
<path d="M2240 2572 c-29 -23 -22 -62 15 -82 22 -12 27 -11 45 5 26 24 25 60
-2 79 -28 20 -31 20 -58 -2z"/>
<path d="M2089 2497 c-47 -31 -48 -62 -5 -111 45 -49 78 -51 118 -7 31 35 35
59 13 100 -24 48 -72 55 -126 18z"/>
<path d="M3393 2504 c-47 -17 -103 -74 -103 -105 0 -11 7 -33 15 -49 9 -18 13
-40 9 -56 -5 -20 -2 -26 14 -30 11 -3 25 -17 32 -30 8 -13 22 -24 34 -24 19 0
19 -1 2 -13 -11 -8 -20 -31 -23 -57 -5 -42 -4 -43 12 -30 16 14 17 13 11 -10
-4 -14 -28 -67 -53 -118 l-46 -92 -86 -47 c-118 -66 -129 -70 -190 -71 -30 0
-58 -5 -63 -10 -5 -5 -21 -7 -36 -4 l-27 6 25 6 c16 4 26 14 28 29 3 17 0 22
-10 19 -7 -3 -45 -16 -85 -29 -69 -22 -73 -22 -92 -5 -14 13 -28 16 -55 11
-23 -5 -42 -3 -51 5 -12 10 -18 10 -30 0 -13 -11 -14 -8 -8 20 5 28 4 32 -10
27 -12 -5 -17 -1 -17 13 0 26 -17 25 -39 -1 -14 -17 -29 -22 -73 -23 l-56 0
13 -31 c8 -16 19 -44 25 -61 16 -43 73 -104 98 -104 21 0 36 -41 33 -95 -3
-45 -64 -216 -81 -225 -10 -5 -31 3 -64 25 -53 35 -64 35 -109 -2 -16 -13 -46
-26 -68 -29 -21 -4 -36 -10 -33 -15 3 -5 -1 -9 -8 -9 -9 -1 -9 -3 2 -10 19
-11 233 -16 278 -7 23 5 40 2 57 -9 19 -13 37 -15 73 -10 26 4 63 10 83 13 35
5 36 6 34 46 -1 23 -5 52 -9 65 -5 14 -3 22 4 22 6 0 8 5 5 10 -3 6 1 10 10
10 25 0 37 49 36 152 -1 114 6 137 49 162 18 10 30 14 26 8 -10 -17 99 -44
152 -37 107 14 313 85 353 121 15 13 19 14 23 3 2 -8 11 -34 19 -59 20 -57 16
-110 -9 -126 -129 -78 -223 -160 -260 -229 -19 -36 -20 -32 20 -115 15 -32 88
-60 114 -44 34 22 89 27 289 27 160 0 205 3 214 13 17 21 5 76 -36 156 -34 66
-36 74 -23 97 7 15 13 33 13 41 -3 42 -18 115 -31 145 -8 19 -14 55 -14 80 0
46 -17 165 -46 310 -15 82 -45 163 -75 203 -10 12 -20 46 -24 74 -6 40 -15 60
-40 85 -36 36 -58 39 -122 17z"/>
<path d="M1962 2478 c-20 -20 -14 -48 13 -60 21 -9 28 -8 45 7 24 22 25 29 4
49 -18 19 -45 21 -62 4z"/>
<path d="M3908 2474 c-36 -19 -37 -57 -3 -80 23 -15 27 -15 50 0 29 19 33 56
9 80 -19 19 -22 19 -56 0z"/>
<path d="M2000 2385 c-9 -11 -10 -19 -3 -26 17 -17 48 -6 48 16 0 25 -28 31
-45 10z"/>
<path d="M2050 2335 c-22 -26 12 -49 37 -24 14 14 6 39 -12 39 -7 0 -18 -7
-25 -15z"/>
<path d="M2113 2315 c-3 -9 -3 -19 1 -22 8 -9 37 18 30 28 -8 14 -24 11 -31
-6z"/>
<path d="M4067 2103 c-11 -10 -8 -41 4 -49 16 -9 43 21 36 40 -7 16 -28 21
-40 9z"/>
<path d="M692 2008 l3 -93 78 -3 77 -3 0 -314 0 -315 95 0 95 0 0 315 0 315
75 0 75 0 0 95 0 95 -250 0 -251 0 3 -92z"/>
<path d="M3997 2086 c-7 -17 18 -40 33 -31 5 3 10 15 10 26 0 23 -35 27 -43 5z"/>
<path d="M4128 2065 c-9 -21 -9 -29 4 -41 18 -19 53 -11 62 13 20 50 -44 76
-66 28z"/>
<path d="M3957 2063 c-13 -12 -7 -33 8 -33 8 0 15 9 15 20 0 20 -11 26 -23 13z"/>
<path d="M3985 2005 c-29 -28 -30 -43 -11 -90 17 -39 74 -62 108 -44 24 13 58
68 58 95 0 60 -107 88 -155 39z"/>
<path d="M1794 2005 c-15 -38 23 -105 59 -105 23 0 91 65 82 79 -3 6 -22 13
-43 16 -20 3 -45 10 -54 16 -25 13 -38 11 -44 -6z"/>
<path d="M1735 1940 c-19 -21 -14 -50 8 -50 21 0 50 37 44 55 -9 21 -30 19
-52 -5z"/>
<path d="M310 1845 l0 -104 -65 6 c-107 10 -183 -32 -220 -121 -25 -60 -30
-162 -11 -228 36 -126 178 -180 264 -100 l29 27 16 -27 c30 -51 99 -45 80 7
-4 11 -9 161 -10 333 l-4 312 -39 0 -40 0 0 -105z m-10 -170 c6 -4 10 -52 10
-118 0 -87 -5 -121 -19 -153 -38 -83 -109 -108 -161 -56 -81 82 -59 292 35
333 21 9 117 5 135 -6z"/>
<path d="M537 1922 c-49 -54 31 -114 83 -62 11 11 20 25 20 30 0 19 -40 50
-63 50 -13 0 -31 -8 -40 -18z"/>
<path d="M1373 1906 c-142 -45 -222 -172 -210 -334 11 -139 84 -245 191 -277
66 -20 112 -19 183 3 53 17 143 65 143 77 0 7 -49 105 -53 105 -1 0 -26 -9
-55 -20 -57 -22 -142 -26 -174 -9 -23 12 -48 66 -48 104 l0 25 186 0 187 0 -5
83 c-3 68 -9 93 -31 130 -62 106 -189 152 -314 113z m146 -142 c12 -15 21 -35
21 -45 0 -17 -9 -19 -85 -19 -89 0 -95 3 -73 43 17 34 39 46 80 47 28 0 41 -6
57 -26z"/>
<path d="M1897 1903 c-12 -12 -7 -50 8 -63 19 -15 35 -5 35 24 0 32 -27 56
-43 39z"/>
<path d="M1762 1868 c-17 -17 -15 -68 2 -68 18 0 46 38 46 62 0 21 -30 24 -48
6z"/>
<path d="M1825 1840 c-3 -11 -3 -29 0 -40 13 -42 62 -9 51 35 -8 31 -42 34
-51 5z"/>
<path d="M4002 1828 c-7 -7 -12 -24 -12 -38 0 -34 17 -50 52 -50 29 0 48 23
48 59 0 34 -62 55 -88 29z"/>
<path d="M540 1505 l0 -245 40 0 40 0 0 245 0 245 -40 0 -40 0 0 -245z"/>
<path d="M1937 1564 c-15 -8 -33 -14 -40 -13 -47 6 -50 -28 -6 -65 34 -29 42
-31 69 -16 21 11 45 73 36 95 -7 19 -23 18 -59 -1z"/>
<path d="M4036 1508 c-26 -36 16 -86 49 -58 28 23 13 80 -21 80 -7 0 -20 -10
-28 -22z"/>
<path d="M2000 1483 c0 -23 29 -53 46 -46 17 6 18 35 2 51 -18 18 -48 15 -48
-5z"/>
<path d="M4120 1470 c-19 -36 14 -56 40 -25 10 12 10 18 0 30 -17 20 -27 19
-40 -5z"/>
<path d="M1841 1458 c-9 -23 2 -58 18 -58 16 0 33 29 29 52 -4 31 -36 36 -47
6z"/>
<path d="M1970 1425 c-12 -15 -2 -42 23 -63 23 -20 41 9 26 41 -14 32 -34 40
-49 22z"/>
<path d="M1914 1422 c-18 -12 -24 -43 -14 -63 20 -36 50 -17 50 31 0 22 -22
41 -36 32z"/>
<path d="M4037 1419 c-20 -12 -47 -67 -47 -94 0 -28 55 -75 87 -75 32 0 93 49
93 75 0 25 -38 73 -70 90 -34 18 -39 18 -63 4z"/>
<path d="M4163 1414 c-3 -9 0 -20 8 -24 15 -10 39 6 39 26 0 19 -39 18 -47 -2z"/>
<path d="M4192 1354 c4 -21 22 -23 26 -1 2 10 -3 17 -13 17 -10 0 -15 -6 -13
-16z"/>
<path d="M3940 1239 c-14 -26 -9 -59 11 -72 22 -14 66 -1 79 23 9 17 6 25 -16
45 -33 30 -60 32 -74 4z"/>
<path d="M1092 1197 c-27 -29 -28 -61 -2 -87 27 -27 62 -25 88 3 27 29 28 61
2 87 -27 27 -62 25 -88 -3z"/>
<path d="M1575 1195 c-187 -35 -302 -120 -355 -262 -27 -74 -31 -190 -6 -227
23 -36 58 -57 106 -63 l41 -6 -8 29 c-13 46 -6 198 11 258 21 71 64 120 123
140 51 17 93 21 93 8 0 -7 -184 -864 -220 -1025 l-8 -38 116 3 116 3 52 240
c28 132 57 266 64 297 l11 57 101 3 c113 3 104 -3 121 86 l7 32 -100 0 c-55 0
-100 2 -100 5 0 7 61 289 65 302 3 8 39 0 120 -27 187 -63 269 -63 328 -2 28
29 71 118 82 168 l6 31 -68 -13 c-91 -18 -223 -17 -368 1 -143 18 -236 18
-330 0z"/>
<path d="M3045 1113 c-55 -7 -102 -19 -106 -24 -3 -6 -21 -84 -40 -174 l-33
-163 -26 28 c-77 83 -288 23 -383 -108 -74 -101 -123 -235 -134 -362 -6 -70
-9 -78 -43 -112 -31 -32 -45 -38 -78 -38 -44 0 -72 20 -72 49 0 10 27 145 60
300 33 155 60 286 60 291 0 6 -48 10 -113 10 l-114 0 -59 -272 c-69 -325 -75
-401 -32 -466 70 -104 238 -93 359 25 l46 44 13 -30 c26 -63 106 -111 186
-111 60 0 127 32 180 85 l51 51 19 -40 c30 -63 63 -81 147 -81 86 0 149 28
205 89 22 26 37 35 40 27 10 -30 70 -86 112 -104 70 -32 181 -29 253 7 70 34
147 116 186 199 29 63 61 183 61 233 0 18 15 41 53 78 28 28 67 80 85 114 32
60 32 62 12 62 -13 0 -42 -22 -74 -55 -28 -30 -57 -55 -63 -55 -6 0 -13 22
-17 49 -7 54 -36 103 -79 135 -43 31 -172 35 -247 7 -70 -26 -160 -105 -198
-174 -58 -103 -102 -248 -102 -335 0 -79 -44 -132 -110 -132 -46 0 -60 15 -60
62 0 21 41 228 90 461 50 233 90 428 90 435 0 14 5 14 -125 -5z m595 -403 c11
-11 20 -32 20 -46 0 -14 -9 -37 -20 -51 -25 -33 -26 -83 -1 -115 19 -23 19
-29 6 -94 -18 -83 -76 -205 -112 -234 -33 -26 -87 -26 -113 0 -17 17 -20 33
-20 108 0 249 151 521 240 432z m-822 -6 c13 -9 22 -26 22 -41 0 -51 -81 -408
-100 -438 -36 -57 -112 -83 -155 -51 -16 12 -20 29 -23 95 -8 166 71 376 162
432 38 23 64 24 94 3z"/>
<path d="M3742 1008 c-16 -16 -15 -58 1 -58 21 0 48 35 41 54 -7 19 -25 21
-42 4z"/>
<path d="M3817 992 c-23 -25 -22 -52 1 -52 23 0 52 30 52 53 0 23 -33 22 -53
-1z"/>
<path d="M226 991 c-6 -9 -86 -494 -86 -518 0 -8 14 -13 39 -13 46 0 40 -14
72 194 l23 148 44 50 c51 56 88 78 131 78 53 0 55 -19 21 -227 -16 -103 -33
-201 -36 -216 -6 -28 -5 -28 38 -25 l43 3 27 167 c19 123 32 175 47 197 55 77
159 124 191 87 14 -18 15 -11 -34 -313 l-23 -143 41 0 42 0 33 215 c38 245 36
276 -12 305 -60 37 -133 21 -205 -44 l-39 -36 -6 30 c-8 36 -58 70 -102 70
-42 -1 -104 -31 -148 -72 l-37 -35 6 53 7 54 -36 0 c-20 0 -38 -4 -41 -9z"/>
<path d="M1076 992 c-4 -7 -86 -504 -86 -524 0 -4 18 -8 40 -8 22 0 40 2 40 4
0 2 18 119 40 261 22 142 40 261 40 266 0 11 -67 12 -74 1z"/>
<path d="M3846 924 c-16 -15 -16 -18 -1 -33 14 -14 18 -14 43 -1 15 9 27 22
27 30 0 22 -49 24 -69 4z"/>
<path d="M3683 923 c-19 -7 -16 -24 8 -49 12 -13 27 -34 33 -46 23 -46 59 -25
71 41 4 23 0 33 -17 45 -22 15 -69 20 -95 9z"/>
<path d="M3810 845 c-16 -19 -5 -35 24 -35 32 0 56 28 35 41 -21 13 -45 11
-59 -6z"/>
</g>
</svg>
