<?xml version="1.0" standalone="no"?>
<!DOCTYPE svg PUBLIC "-//W3C//DTD SVG 20010904//EN"
 "http://www.w3.org/TR/2001/REC-SVG-20010904/DTD/svg10.dtd">
<svg version="1.0" xmlns="http://www.w3.org/2000/svg"
 width="1073.000000pt" height="1065.000000pt" viewBox="0 0 1073.000000 1065.000000"
 preserveAspectRatio="xMidYMid meet">
<metadata>
Created by potrace 1.12, written by Peter Selinger 2001-2015
</metadata>
<g transform="translate(0.000000,1065.000000) scale(0.100000,-0.100000)"
fill="#ece8df" stroke="none">
<path d="M6404 10635 c-107 -47 -119 -199 -23 -293 67 -65 171 -64 227 4 57
69 46 177 -26 247 -56 55 -116 69 -178 42z"/>
<path d="M3222 10575 c-41 -34 -43 -75 -6 -104 36 -28 86 -27 120 2 51 44 25
112 -47 123 -28 5 -41 1 -67 -21z"/>
<path d="M3517 10525 c-127 -49 -161 -139 -161 -430 0 -108 20 -160 91 -229
84 -83 171 -94 327 -42 181 61 290 181 287 315 -6 258 -137 385 -411 397 -68
3 -106 0 -133 -11z"/>
<path d="M4253 10419 c-46 -29 -65 -79 -71 -185 -6 -127 11 -175 78 -217 43
-27 88 -27 170 -1 92 29 142 73 159 140 21 83 -10 181 -73 229 -72 55 -204 72
-263 34z"/>
<path d="M3103 10393 c-117 -40 -92 -193 33 -193 104 0 159 104 90 169 -34 32
-74 40 -123 24z"/>
<path d="M6162 10324 c-20 -9 -39 -28 -49 -49 -16 -33 -16 -37 3 -82 34 -82
117 -116 185 -76 79 47 52 168 -47 209 -40 17 -49 17 -92 -2z"/>
<path d="M6610 10244 c-129 -49 -172 -98 -232 -267 -55 -155 -58 -166 -58
-218 0 -137 112 -224 333 -259 136 -22 241 21 324 134 65 88 83 134 83 208 -1
76 -14 116 -64 190 -47 72 -113 136 -184 179 -46 28 -67 34 -121 36 -36 1 -73
0 -81 -3z"/>
<path d="M3100 10133 c-41 -8 -88 -50 -99 -90 -21 -74 31 -133 117 -133 41 0
55 5 86 33 97 84 26 214 -104 190z"/>
<path d="M6050 10032 c-56 -56 -28 -145 55 -172 106 -35 178 74 107 159 -23
28 -36 34 -79 38 -48 5 -55 3 -83 -25z"/>
<path d="M3189 9837 c-123 -65 -142 -229 -34 -292 46 -27 79 -31 138 -14 46
12 110 68 127 109 19 47 8 135 -21 166 -52 57 -137 69 -210 31z"/>
<path d="M6132 9773 c-32 -6 -54 -54 -42 -90 21 -59 112 -81 146 -35 29 38 3
103 -47 121 -18 6 -32 10 -33 10 -1 -1 -11 -4 -24 -6z"/>
<path d="M7244 9768 c-63 -16 -116 -97 -149 -227 -11 -42 -13 -67 -7 -73 6 -6
8 -17 5 -25 -7 -19 32 -60 82 -86 61 -31 170 -35 222 -9 72 37 123 116 123
189 -1 69 -59 159 -137 210 -32 21 -100 31 -139 21z"/>
<path d="M8974 9572 c-65 -45 -53 -161 21 -196 50 -24 82 -20 116 13 65 66 10
191 -85 191 -22 0 -46 -4 -52 -8z"/>
<path d="M9260 9519 c-31 -12 -40 -26 -40 -62 0 -57 35 -96 87 -97 52 0 82 67
53 121 -9 15 -61 51 -72 48 -2 0 -14 -5 -28 -10z"/>
<path d="M8733 9493 c-31 -6 -70 -49 -75 -82 -6 -44 24 -112 63 -138 90 -62
197 15 168 121 -10 35 -69 96 -94 96 -7 0 -19 2 -27 4 -7 2 -23 1 -35 -1z"/>
<path d="M9130 9266 c-36 -13 -92 -33 -124 -45 -174 -63 -250 -153 -251 -296
0 -91 32 -150 131 -244 98 -94 183 -135 278 -136 79 0 124 20 221 99 63 51 86
79 106 131 44 108 -4 343 -89 439 -67 76 -157 93 -272 52z"/>
<path d="M8450 9269 c-70 -29 -111 -106 -95 -178 8 -40 70 -109 112 -126 87
-37 190 -5 224 68 24 55 24 83 -3 137 -32 62 -92 102 -160 107 -29 1 -64 -2
-78 -8z"/>
<path d="M2335 8960 c-55 -11 -125 -43 -152 -69 -52 -49 -70 -131 -41 -183 47
-84 155 -180 214 -191 100 -19 235 141 218 257 -21 131 -121 210 -239 186z"/>
<path d="M1825 8683 c-155 -27 -217 -51 -303 -120 -65 -53 -87 -102 -87 -198
0 -115 22 -154 159 -287 123 -119 169 -148 242 -149 88 -2 155 38 238 140 87
108 111 161 111 257 0 74 -3 87 -38 156 -46 90 -103 153 -164 179 -43 18 -119
29 -158 22z"/>
<path d="M7228 8634 c-59 -19 -114 -41 -122 -49 -8 -8 -17 -15 -21 -15 -3 0
-40 -20 -83 -45 -114 -66 -192 -144 -197 -195 0 -3 -14 -24 -31 -45 -17 -22
-39 -55 -48 -72 -16 -32 -15 -35 7 -80 13 -27 30 -70 37 -98 13 -47 44 -114
59 -125 20 -15 30 -89 20 -146 -13 -72 -15 -122 -5 -153 7 -21 12 -23 55 -18
38 4 51 1 79 -19 23 -18 32 -33 32 -53 0 -15 9 -36 20 -46 10 -9 22 -37 26
-61 8 -56 33 -78 76 -70 64 11 119 13 115 3 -2 -6 -19 -18 -38 -29 -53 -28
-92 -66 -85 -83 3 -8 1 -15 -5 -15 -6 0 -8 -4 -5 -9 3 -5 -3 -20 -14 -34 -24
-30 -25 -37 -6 -37 9 0 14 -9 13 -20 -1 -11 -4 -20 -7 -20 -12 0 -30 -68 -30
-114 0 -26 7 -60 15 -76 17 -34 27 -39 23 -12 -2 11 3 17 15 16 12 -1 17 6 17
22 0 24 24 43 37 30 10 -10 -16 -137 -37 -181 -11 -22 -21 -50 -23 -62 -2 -12
-6 -25 -9 -29 -4 -3 -4 -12 -2 -19 3 -7 1 -16 -5 -20 -6 -3 -11 -15 -11 -25 0
-10 -22 -54 -50 -98 -27 -44 -52 -92 -56 -106 -3 -14 -10 -26 -14 -26 -4 0
-11 -11 -14 -24 -3 -14 -12 -31 -19 -38 -25 -26 -55 -84 -67 -128 -6 -25 -24
-65 -38 -90 -15 -25 -27 -48 -27 -51 0 -3 -8 -13 -18 -23 -9 -10 -24 -30 -32
-45 -10 -20 -40 -41 -102 -71 -190 -91 -216 -106 -286 -159 -40 -29 -103 -67
-142 -83 -100 -41 -116 -49 -150 -73 -16 -11 -49 -29 -72 -39 -24 -11 -43 -23
-43 -28 0 -4 -3 -7 -7 -6 -5 1 -46 -13 -92 -31 -62 -24 -95 -31 -120 -27 -118
17 -139 17 -204 2 -38 -9 -96 -16 -129 -16 -59 0 -128 -27 -128 -51 0 -14 -28
-11 -65 7 -25 11 -56 15 -119 12 -66 -2 -83 0 -71 8 24 18 85 24 141 15 l51
-8 25 56 c19 43 25 71 24 120 -2 79 -21 99 -60 62 -23 -22 -197 -90 -244 -95
-13 -1 -27 -8 -31 -15 -5 -7 -14 -13 -22 -14 -8 -2 -20 -6 -26 -10 -7 -5 -17
-5 -23 -2 -5 3 -10 2 -10 -4 0 -5 -8 -9 -17 -9 -10 1 -69 -15 -132 -35 -124
-40 -181 -47 -181 -22 0 10 -10 15 -30 15 -25 0 -30 4 -30 24 0 14 -5 28 -10
31 -6 4 -8 10 -6 14 8 12 -91 53 -129 54 -21 1 -42 -7 -56 -19 -11 -10 -31
-20 -43 -21 -19 -1 -53 -8 -66 -13 -3 -1 -8 -2 -12 -1 -5 0 -8 -4 -8 -9 0 -7
-7 -7 -20 0 -12 6 -30 8 -40 5 -12 -4 -20 -2 -20 5 0 6 -4 8 -10 5 -5 -3 -12
6 -16 21 -10 39 -57 56 -103 37 -19 -8 -40 -21 -46 -29 -5 -7 -25 -16 -42 -19
-28 -4 -33 -2 -33 14 0 11 5 23 10 26 6 4 22 24 35 46 28 43 33 103 10 133
-12 16 -18 17 -47 7 -17 -6 -42 -21 -55 -33 -20 -19 -23 -19 -29 -4 -3 9 1 32
11 52 18 37 14 104 -6 104 -6 0 -8 4 -4 9 3 5 0 13 -7 18 -20 12 -58 11 -58
-1 0 -6 -9 -17 -20 -24 -11 -7 -20 -17 -20 -22 0 -17 -81 -114 -101 -122 -10
-4 -56 -9 -101 -12 -46 -3 -84 -5 -85 -7 -2 -1 -6 -2 -10 -3 -5 -1 -24 -11
-43 -23 -45 -28 -114 -23 -174 12 -24 14 -57 25 -75 25 l-33 0 21 -35 c11 -19
32 -66 47 -103 14 -37 33 -72 40 -78 8 -6 14 -17 14 -24 0 -6 9 -24 21 -38 11
-15 16 -28 11 -30 -5 -1 -6 -20 -1 -45 4 -23 5 -45 3 -49 -3 -5 0 -8 6 -8 6 0
8 -4 5 -10 -3 -5 -1 -10 6 -10 7 0 9 -3 6 -6 -4 -4 2 -19 13 -34 11 -16 20
-32 20 -37 0 -5 23 -37 50 -71 27 -34 50 -65 50 -68 0 -4 8 -13 17 -20 10 -7
18 -16 18 -21 1 -34 119 -133 159 -133 9 0 16 -4 16 -8 0 -15 70 -42 108 -42
50 0 86 -24 72 -50 -16 -31 -12 -54 25 -132 33 -70 35 -78 26 -121 -6 -25 -18
-92 -26 -148 -9 -57 -25 -139 -37 -184 -12 -44 -23 -96 -25 -115 -5 -57 -6
-60 -15 -60 -5 0 -7 -4 -3 -9 3 -5 1 -12 -5 -16 -5 -3 -10 -15 -10 -26 0 -10
-4 -19 -10 -19 -5 0 -9 -3 -8 -7 1 -5 -3 -19 -9 -33 -51 -121 -67 -159 -78
-185 -7 -16 -17 -41 -21 -55 -3 -14 -10 -27 -14 -30 -12 -9 -40 -90 -40 -115
0 -25 -37 -68 -52 -59 -4 3 -8 0 -8 -7 0 -7 -10 -9 -25 -7 -13 3 -26 0 -28 -6
-5 -13 -15 -7 -138 75 -46 30 -92 58 -101 62 -10 3 -18 11 -18 17 0 5 -7 10
-15 10 -7 0 -18 6 -22 13 -18 30 -139 97 -174 97 -5 0 -9 -9 -9 -19 0 -16 -9
-21 -47 -26 -75 -10 -128 -30 -125 -47 4 -24 -106 -120 -153 -133 -16 -5 -32
-9 -35 -10 -3 -1 -31 -5 -62 -9 -32 -5 -57 -11 -56 -15 3 -26 -7 -30 -77 -30
-75 0 -121 -14 -110 -32 4 -5 17 -9 31 -9 51 0 23 -27 -51 -49 -41 -12 -75
-25 -75 -30 0 -9 39 -23 80 -27 14 -2 43 -5 65 -8 22 -2 108 -7 190 -11 83 -3
166 -7 185 -9 351 -29 554 -32 582 -9 17 14 71 22 183 28 50 3 107 8 129 11
21 3 41 2 45 -3 10 -16 106 -79 155 -103 41 -19 59 -21 164 -18 98 2 123 6
147 23 32 21 62 27 70 15 3 -5 30 6 61 22 51 28 64 31 160 32 57 0 104 4 104
9 0 4 14 7 30 7 17 0 30 4 30 9 0 26 -34 83 -56 93 -29 14 -27 30 7 38 18 5
24 13 25 35 0 17 -3 32 -8 35 -4 3 -9 17 -10 30 -2 18 2 25 14 25 10 0 18 5
17 10 0 21 -12 61 -22 73 -5 6 -6 12 -1 12 5 0 1 5 -8 11 -10 5 -18 18 -18 28
0 11 -13 33 -30 51 -35 38 -37 46 -9 55 15 5 17 10 9 20 -14 17 -6 21 52 30
l48 7 -25 20 c-29 23 -32 38 -7 38 9 0 30 7 46 15 15 8 36 15 45 15 37 0 76
59 50 75 -14 9 -11 45 4 42 7 -1 11 7 9 21 -2 16 2 22 16 22 17 0 19 6 17 36
-2 20 -14 48 -27 62 -16 17 -19 26 -10 29 6 3 12 11 12 19 0 8 4 14 10 14 11
0 8 49 -4 68 -12 20 14 42 50 42 18 0 36 4 39 10 3 6 -4 10 -18 10 -13 0 -32
9 -43 21 -19 21 -16 27 21 43 6 3 4 8 -3 14 -8 5 -13 12 -13 16 1 3 0 9 -1 14
-1 4 -3 41 -4 82 -4 105 -20 297 -28 347 -7 38 3 77 24 93 22 18 47 78 43 106
-4 26 0 35 24 51 15 11 43 25 61 33 18 7 37 21 43 31 5 11 16 19 23 19 7 0 37
22 67 50 30 27 59 50 64 49 6 0 4 -3 -2 -6 -7 -2 -13 -12 -13 -22 0 -9 -6 -26
-14 -37 -12 -17 -12 -22 2 -41 17 -20 37 -27 187 -64 101 -25 205 -57 219 -67
19 -15 91 -14 167 1 41 9 119 18 174 22 109 7 156 18 196 46 14 10 59 23 100
29 83 13 144 27 174 40 38 16 60 23 68 22 4 -1 7 3 7 10 0 6 3 9 6 5 3 -3 18
-2 32 3 15 5 108 34 207 65 99 32 185 61 191 67 7 5 23 11 35 13 13 3 66 25
116 50 51 25 98 45 105 45 7 0 35 11 61 25 26 14 52 23 56 20 5 -3 16 2 24 10
9 8 20 15 26 15 6 0 11 5 11 10 0 20 89 140 103 140 3 0 10 -33 16 -72 11 -72
37 -189 49 -218 3 -8 6 -17 7 -20 23 -78 32 -100 48 -123 11 -16 27 -60 37
-98 l17 -69 -24 -36 c-56 -82 -58 -114 -9 -156 21 -18 21 -18 1 -33 -11 -9
-57 -36 -102 -61 -46 -25 -83 -49 -83 -55 0 -5 -3 -8 -7 -7 -9 2 -158 -83
-239 -136 -70 -46 -98 -67 -244 -187 -184 -150 -460 -437 -460 -477 0 -6 -3
-12 -8 -14 -13 -6 -81 -106 -98 -145 -18 -43 -21 -157 -5 -177 6 -7 9 -15 6
-18 -3 -2 9 -17 25 -33 21 -20 30 -38 30 -61 0 -33 19 -87 47 -139 10 -16 16
-32 15 -35 -1 -3 5 -13 13 -23 8 -9 15 -21 15 -25 0 -5 15 -22 33 -39 42 -40
130 -70 288 -98 77 -14 81 -13 117 7 89 52 125 66 184 73 35 4 68 10 73 13 6
4 19 8 30 9 11 2 31 7 45 12 14 5 54 14 90 20 36 6 98 19 138 30 40 10 72 15
72 11 0 -10 -47 -30 -70 -30 -10 0 -22 -4 -25 -10 -8 -13 482 -13 595 0 47 5
171 12 275 14 110 3 226 11 275 20 105 20 97 20 104 -7 5 -23 11 -24 103 -30
104 -6 227 3 259 21 62 33 81 97 64 224 -11 86 -34 161 -81 263 -18 39 -33 72
-34 75 -5 24 -39 100 -44 100 -4 0 -13 17 -20 38 -8 20 -37 77 -65 126 -114
199 -108 186 -92 211 8 12 21 29 28 37 16 17 31 41 58 90 24 44 28 170 8 259
-6 30 -12 78 -13 108 0 40 -5 56 -20 67 -15 11 -20 28 -22 67 -1 29 -3 52 -3
52 -1 0 -4 13 -6 29 -3 16 -16 54 -29 85 -12 31 -38 103 -55 161 -18 58 -36
110 -41 116 -5 6 -5 14 -1 18 4 4 7 11 8 14 0 4 6 34 13 66 10 46 11 74 2 130
-11 68 -17 95 -22 106 -3 8 -5 20 -14 88 -4 34 -11 62 -14 62 -4 0 -8 21 -9
47 -1 26 -7 50 -13 54 -6 4 -9 11 -6 16 3 4 1 30 -4 57 -5 27 -20 160 -34 295
-14 135 -32 271 -40 301 -8 30 -15 71 -15 90 0 20 -6 44 -13 55 -8 11 -15 51
-16 89 -2 66 -24 144 -44 157 -5 4 -9 35 -8 69 1 58 -4 73 -53 169 -30 58 -57
123 -61 145 -10 63 -105 235 -159 290 -26 28 -50 61 -53 75 -2 14 -9 31 -14
37 -15 18 -20 52 -19 122 0 34 -3 62 -8 62 -4 0 -8 16 -9 35 -2 58 -34 176
-64 235 -15 30 -55 90 -89 132 -54 67 -69 80 -126 102 -54 22 -80 26 -162 26
-83 -1 -112 -6 -204 -36z"/>
<path d="M1107 8535 c-67 -23 -117 -88 -117 -152 0 -36 36 -98 70 -123 65 -46
174 -39 238 16 92 78 74 197 -39 254 -44 23 -98 25 -152 5z"/>
<path d="M9420 8502 c-127 -52 -165 -86 -176 -154 -10 -58 11 -109 68 -167 88
-89 161 -111 244 -70 127 61 165 186 101 329 -40 91 -119 111 -237 62z"/>
<path d="M1270 8158 c-135 -38 -127 -218 10 -218 78 0 140 55 140 124 0 73
-70 117 -150 94z"/>
<path d="M1481 7959 c-70 -15 -113 -96 -84 -157 26 -53 91 -67 149 -31 109 67
58 215 -65 188z"/>
<path d="M1709 7845 c-39 -21 -54 -65 -35 -103 34 -67 136 -37 152 45 12 59
-55 92 -117 58z"/>
<path d="M10083 6919 c-45 -29 -70 -96 -54 -149 32 -108 165 -105 207 6 42
111 -57 205 -153 143z"/>
<path d="M9811 6896 c-33 -18 -50 -53 -51 -104 0 -33 6 -49 28 -71 37 -39 64
-46 106 -26 69 33 86 122 35 180 -34 38 -74 46 -118 21z"/>
<path d="M10441 6848 c-169 -48 -188 -303 -26 -334 160 -30 283 164 184 290
-11 14 -25 24 -30 21 -5 -4 -9 -2 -9 4 0 8 -64 33 -80 30 -3 0 -20 -5 -39 -11z"/>
<path d="M9620 6743 c-47 -17 -70 -74 -50 -124 23 -55 100 -52 127 5 30 65
-18 140 -77 119z"/>
<path d="M10045 6583 c-11 -1 -74 -7 -141 -12 -157 -11 -210 -37 -257 -126
-53 -100 -17 -338 68 -449 68 -89 294 -146 402 -101 131 55 243 249 244 421 1
88 -23 139 -92 198 -55 46 -159 79 -224 69z"/>
<path d="M349 6521 c-18 -9 -39 -27 -47 -41 -38 -73 34 -303 125 -394 62 -62
98 -69 187 -35 138 51 297 202 299 283 2 74 -55 104 -211 112 -128 6 -144 10
-210 56 -53 37 -94 42 -143 19z"/>
<path d="M110 6266 c-19 -13 -50 -45 -69 -71 -29 -40 -34 -55 -33 -102 0 -47
5 -60 26 -79 63 -59 185 -1 237 113 11 22 17 52 15 65 -3 12 -5 29 -5 36 -1 7
-12 24 -26 37 -33 34 -97 34 -145 1z"/>
<path d="M783 6058 c-13 -6 -32 -30 -44 -54 -38 -80 -10 -207 55 -252 36 -25
56 -28 56 -9 0 8 3 7 10 -3 14 -23 56 6 80 56 25 51 21 125 -11 190 -34 72
-90 99 -146 72z"/>
<path d="M264 5952 c-67 -21 -154 -148 -154 -226 0 -50 30 -103 65 -112 118
-30 261 188 200 305 -9 19 -25 30 -46 35 -35 7 -35 7 -65 -2z"/>
<path d="M503 5858 c-37 -42 -54 -75 -62 -127 -13 -84 26 -211 65 -211 8 0 14
-4 14 -9 0 -11 35 -9 62 3 10 5 15 13 11 19 -4 6 0 8 9 4 11 -4 23 9 42 46 45
90 31 233 -27 279 -32 25 -89 23 -114 -4z"/>
<path d="M9863 5750 c-22 -3 -59 -18 -81 -32 -51 -34 -68 -94 -52 -177 24
-126 103 -196 220 -196 77 1 123 26 163 90 77 124 64 255 -31 301 -39 20 -139
26 -219 14z"/>
<path d="M1075 4653 c-16 -3 -73 -26 -125 -51 -93 -46 -96 -47 -184 -45 -110
3 -151 -16 -176 -83 -18 -48 48 -154 138 -221 20 -15 39 -31 42 -35 14 -18
115 -60 157 -64 42 -5 53 -2 89 24 52 38 86 82 125 162 57 117 77 251 42 285
-16 17 -58 36 -71 34 -4 -1 -20 -4 -37 -6z"/>
<path d="M9963 4417 c-73 -50 -103 -179 -59 -253 25 -42 92 -84 134 -84 46 0
102 33 132 77 34 50 36 166 4 210 -54 73 -145 95 -211 50z"/>
<path d="M1253 4339 c-33 -12 -54 -51 -55 -102 0 -37 6 -55 38 -101 22 -30 55
-64 75 -76 38 -21 126 -29 114 -10 -3 6 -1 10 6 10 21 0 38 34 39 78 1 110
-132 233 -217 201z"/>
<path d="M10354 4259 c-38 -11 -80 -63 -89 -111 -16 -84 64 -156 138 -124 52
22 79 59 85 114 5 58 -7 86 -51 112 -35 22 -38 22 -83 9z"/>
<path d="M568 4224 c-33 -17 -63 -72 -73 -131 -16 -99 29 -185 97 -185 66 0
117 67 133 173 17 112 -70 191 -157 143z"/>
<path d="M1100 4042 c-73 -36 -66 -175 14 -276 36 -45 73 -66 116 -66 32 0 75
34 65 50 -4 6 -1 10 4 10 22 0 12 107 -14 162 -32 65 -52 91 -96 117 -41 25
-45 26 -89 3z"/>
<path d="M10528 4034 c-35 -18 -58 -62 -58 -109 0 -27 8 -44 30 -67 27 -26 36
-30 68 -24 20 3 48 14 61 24 30 22 54 87 46 124 -13 59 -87 85 -147 52z"/>
<path d="M10015 4000 c-138 -22 -248 -188 -262 -397 -6 -89 -5 -95 25 -155 36
-73 90 -119 196 -169 114 -53 205 -42 328 40 163 109 227 222 193 339 -13 44
-33 70 -131 172 -151 156 -222 191 -349 170z"/>
<path d="M823 3979 c-38 -24 -73 -107 -73 -171 0 -96 53 -182 111 -180 39 1
74 24 94 62 9 17 13 30 9 30 -4 0 0 7 7 16 22 27 16 147 -11 198 -34 66 -80
82 -137 45z"/>
<path d="M10596 3739 c-31 -37 -33 -77 -6 -107 42 -45 113 -15 132 55 21 76
-74 115 -126 52z"/>
<path d="M9624 3302 c-50 -16 -91 -56 -119 -116 -54 -118 -44 -198 32 -266
102 -89 222 -78 324 30 81 87 71 157 -37 262 -88 84 -141 108 -200 90z"/>
<path d="M1555 2760 c-3 -5 -14 -10 -24 -10 -10 0 -31 -12 -47 -26 -16 -15
-49 -45 -74 -68 -65 -60 -89 -73 -159 -87 -75 -14 -116 -45 -132 -100 -15 -50
-5 -70 64 -125 87 -69 178 -105 280 -112 l88 -5 42 45 c41 43 74 115 83 182 2
17 6 49 9 71 3 22 3 73 -1 113 -5 60 -11 77 -34 102 -28 30 -82 42 -95 20z"/>
<path d="M1810 2511 c-13 -4 -32 -21 -42 -38 -58 -98 101 -256 224 -222 65 17
86 84 47 149 -52 85 -151 134 -229 111z"/>
<path d="M8713 2249 c-65 -32 -113 -113 -113 -190 0 -51 12 -73 48 -88 59 -24
133 16 185 101 40 64 29 165 -19 187 -35 16 -53 14 -101 -10z"/>
<path d="M1182 2214 c-48 -33 -63 -98 -47 -196 10 -57 70 -118 117 -118 38 0
56 11 83 55 25 39 25 156 1 203 -32 62 -107 89 -154 56z"/>
<path d="M9070 2209 c-79 -36 -150 -127 -150 -193 0 -39 21 -76 47 -82 82 -21
177 27 231 116 78 130 6 220 -128 159z"/>
<path d="M1733 2180 c-29 -17 -33 -25 -33 -64 0 -25 5 -57 11 -73 32 -87 125
-164 199 -165 50 0 84 25 77 59 -2 13 0 23 5 23 12 0 1 53 -19 97 -31 67 -130
142 -188 143 -11 0 -35 -9 -52 -20z"/>
<path d="M1486 2043 c-34 -34 -40 -59 -34 -143 15 -204 212 -275 234 -84 14
114 -64 254 -140 254 -23 0 -42 -8 -60 -27z"/>
<path d="M9210 1916 c-73 -27 -86 -35 -113 -63 -63 -67 -37 -147 53 -163 154
-28 322 102 255 197 -28 40 -127 55 -195 29z"/>
<path d="M8505 1879 c-79 -10 -110 -23 -131 -54 -16 -25 -16 -30 -1 -78 13
-41 33 -67 93 -126 84 -84 95 -101 120 -184 25 -85 90 -133 153 -111 37 13
114 130 141 214 25 78 31 201 11 238 -39 73 -223 121 -386 101z"/>
<path d="M3074 1807 c-48 -27 -81 -85 -120 -212 -16 -50 -30 -70 -86 -124 -76
-72 -91 -112 -64 -174 20 -49 68 -62 211 -61 116 1 178 16 241 57 39 26 52 51
59 115 12 101 -67 306 -146 377 -41 37 -61 42 -95 22z"/>
<path d="M3460 1723 c-77 -28 -108 -65 -95 -114 15 -59 73 -96 164 -105 49 -6
67 -3 104 15 62 30 78 69 52 125 -27 57 -158 103 -225 79z"/>
<path d="M9070 1583 c-89 -15 -150 -67 -150 -127 0 -38 37 -82 77 -93 44 -11
150 4 185 25 58 36 84 105 55 143 -31 40 -106 63 -167 52z"/>
<path d="M6970 1571 c-93 -29 -160 -108 -160 -190 0 -31 6 -44 26 -60 29 -23
85 -28 128 -11 34 12 104 77 122 111 17 35 18 106 1 123 -33 34 -68 42 -117
27z"/>
<path d="M7300 1431 c-120 -25 -222 -137 -188 -208 29 -61 120 -71 214 -22 74
38 115 86 121 142 4 33 1 46 -13 58 -18 15 -80 40 -93 38 -3 -1 -22 -4 -41 -8z"/>
<path d="M3514 1396 c-18 -8 -36 -27 -44 -46 -12 -29 -11 -37 8 -74 38 -71
124 -116 221 -116 103 0 144 53 106 134 -40 85 -201 141 -291 102z"/>
<path d="M6538 1260 c-24 -18 -28 -29 -28 -73 0 -40 8 -66 36 -117 20 -36 45
-83 57 -105 17 -30 23 -61 25 -124 2 -66 7 -89 24 -113 27 -38 79 -61 110 -49
119 45 272 279 253 385 -9 47 -80 112 -168 156 -74 36 -119 48 -217 56 -57 5
-69 3 -92 -16z"/>
<path d="M3353 1165 c-13 -9 -27 -33 -33 -55 -26 -97 105 -249 216 -250 35 0
71 29 80 67 19 72 -62 195 -154 234 -53 23 -81 24 -109 4z"/>
<path d="M2991 1151 c-51 -51 -33 -152 39 -223 72 -70 157 -75 190 -13 30 56
-19 183 -89 230 -45 32 -112 34 -140 6z"/>
<path d="M7295 1101 c-76 -15 -130 -72 -118 -122 9 -39 41 -66 99 -84 101 -32
214 -5 254 60 25 41 25 56 -2 90 -42 54 -135 76 -233 56z"/>
<path d="M5240 947 c-88 -30 -138 -87 -124 -142 7 -29 56 -69 95 -79 34 -8
125 9 166 31 17 9 41 34 53 55 18 33 20 43 10 72 -6 19 -22 41 -35 50 -32 21
-122 28 -165 13z"/>
<path d="M4804 878 c-41 -20 -56 -75 -58 -215 l-1 -128 -38 -67 c-40 -71 -43
-97 -15 -154 22 -48 54 -56 141 -40 127 25 256 98 307 175 48 74 4 196 -117
322 -60 62 -149 120 -183 118 -8 0 -25 -5 -36 -11z"/>
<path d="M7035 824 c-103 -35 -113 -144 -17 -193 45 -23 134 -32 180 -18 45
14 82 60 82 102 0 77 -147 143 -245 109z"/>
<path d="M5436 678 c-85 -18 -137 -77 -116 -132 25 -67 138 -109 234 -87 77
17 119 48 131 95 8 34 7 40 -14 57 -13 11 -20 19 -15 19 18 0 -34 31 -70 41
-53 15 -103 17 -150 7z"/>
<path d="M5355 392 c-57 -4 -84 -20 -95 -60 -31 -112 166 -243 292 -193 32 12
48 39 48 78 0 35 -36 96 -52 87 -6 -4 -8 -3 -4 4 18 29 -117 89 -189 84z"/>
<path d="M4980 258 c-37 -19 -49 -39 -50 -84 0 -92 118 -184 218 -170 80 11
105 55 73 128 -10 24 -28 53 -39 64 -55 58 -150 87 -202 62z"/>
</g>
</svg>
